<svg xmlns="http://www.w3.org/2000/svg" height="15" viewBox="-21 -47 11.261 11.25" width="15"><path d="M-11.28718-47.33335h-8.16464c-.85365 0-1.54818.75477-1.54818 1.68278v5.43094c0 .92593.6915 1.6795 1.54268 1.68279v2.4645l3.2585-2.4645h4.91164c.85364 0 1.54818-.75493 1.54818-1.68279v-5.43094c0-.92802-.69454-1.68278-1.54818-1.68278zm.88835 7.11373c0 .53235-.3985.9656-.88835.9656h-5.11866l-2.39165 1.80893v-1.80893h-.65433c-.48985 0-.88836-.43325-.88836-.9656v-5.43096c0-.5325.39851-.96559.88836-.96559h8.16464c.48985 0 .88835.43308.88835.9656zm0 0"/><path d="M-17.98605-44.79922h5.2331v.71718h-5.2331zm0 1.53h5.2331v.71718h-5.2331zm0 1.53h5.2331v.71717h-5.2331zm0 0"/></svg>