<?xml version="1.0" encoding="UTF-8" standalone="no"?>
<svg
   xmlns:dc="http://purl.org/dc/elements/1.1/"
   xmlns:cc="http://creativecommons.org/ns#"
   xmlns:rdf="http://www.w3.org/1999/02/22-rdf-syntax-ns#"
   xmlns:svg="http://www.w3.org/2000/svg"
   xmlns="http://www.w3.org/2000/svg"
   xmlns:sodipodi="http://sodipodi.sourceforge.net/DTD/sodipodi-0.dtd"
   xmlns:inkscape="http://www.inkscape.org/namespaces/inkscape"
   height="16"
   viewBox="-21 -47 12.011733 12"
   width="16"
   version="1.1"
   id="svg831"
   sodipodi:docname="cmd-icon-dark.svg"
   inkscape:version="0.92.4 (5da689c313, 2019-01-14)">
  <metadata
     id="metadata837">
    <rdf:RDF>
      <cc:Work
         rdf:about="">
        <dc:format>image/svg+xml</dc:format>
        <dc:type
           rdf:resource="http://purl.org/dc/dcmitype/StillImage" />
        <dc:title></dc:title>
      </cc:Work>
    </rdf:RDF>
  </metadata>
  <defs
     id="defs835" />
  <sodipodi:namedview
     pagecolor="#ffffff"
     bordercolor="#666666"
     borderopacity="1"
     objecttolerance="10"
     gridtolerance="10"
     guidetolerance="10"
     inkscape:pageopacity="0"
     inkscape:pageshadow="2"
     inkscape:window-width="1920"
     inkscape:window-height="1017"
     id="namedview833"
     showgrid="false"
     inkscape:zoom="14.133333"
     inkscape:cx="23.679309"
     inkscape:cy="7.0175533"
     inkscape:window-x="1912"
     inkscape:window-y="-8"
     inkscape:window-maximized="1"
     inkscape:current-layer="svg831" />
  <g
     id="g1412"
     transform="translate(0.750733,0.3274835)">
    <path
       style="fill:#fefefe;fill-opacity:0.60535996;stroke-width:0.93333334"
       inkscape:connector-curvature="0"
       id="path827"
       d="m -11.934701,-46.582617 h -7.620331 c -0.79674,0 -1.444968,0.704452 -1.444968,1.570595 v 5.068887 c 0,0.864182 0.6454,1.567514 1.439835,1.570585 v 2.3002 l 3.041266,-2.3002 h 4.584198 c 0.79673,0 1.444968,-0.704573 1.444968,-1.570585 v -5.068896 c 0,-0.866134 -0.648238,-1.570586 -1.444968,-1.570586 z m 0.829126,6.639491 c 0,0.49686 -0.371933,0.901199 -0.829126,0.901199 h -4.777416 l -2.232207,1.688362 v -1.688362 h -0.610708 c -0.457193,0 -0.829136,-0.40433 -0.829136,-0.901199 v -5.068905 c 0,-0.497 0.371943,-0.901208 0.829136,-0.901208 h 7.620331 c 0.457193,0 0.829126,0.404198 0.829126,0.901208 z m 0,0" />
    <path
       style="fill:#ffffff;fill-opacity:0.60535996;stroke-width:0.93333334"
       inkscape:connector-curvature="0"
       id="path829"
       d="m -18.18698,-44.217419 h 4.884227 v 0.669377 h -4.884227 z m 0,1.42799 h 4.884227 v 0.669368 h -4.884227 z m 0,1.428 h 4.884227 v 0.669368 h -4.884227 z m 0,0" />
  </g>
</svg>
